<?xml version="1.0" encoding="UTF-8" standalone="no"?>
<!DOCTYPE svg PUBLIC "-//W3C//DTD SVG 1.1//EN" "http://www.w3.org/Graphics/SVG/1.1/DTD/svg11.dtd">
<svg width="100%" height="100%" viewBox="0 0 1000 1000" version="1.1" xmlns="http://www.w3.org/2000/svg" xmlns:xlink="http://www.w3.org/1999/xlink" xml:space="preserve" xmlns:serif="http://www.serif.com/" style="fill-rule:evenodd;clip-rule:evenodd;stroke-linejoin:round;stroke-miterlimit:2;">
    <g id="Logo" transform="matrix(1,0,0,1,-1100,0)">
        <rect x="1100" y="0" width="1000" height="1000" style="fill:none;"/>
        <g>
            <path id="Box" d="M2100,100L2100,900C2100,955.192 2055.19,1000 2000,1000L1200,1000C1144.81,1000 1100,955.192 1100,900L1100,100C1100,44.808 1144.81,0 1200,0L2000,0C2055.19,0 2100,44.808 2100,100Z" style="fill:url(#_Linear1);"/>
            <g id="Shadow" transform="matrix(1,0,0,1,1100,-1100)">
                <path d="M1000,1539.31L1000,2000C1000,2055.19 955.192,2100 900,2100L436.128,2100L234.859,1898.73C236.242,1899.8 238.115,1900.29 239.988,1899.82L275.272,1889.93L280.548,1894.22C281.867,1895.54 283.846,1895.21 285.165,1893.89L294.398,1883.01C295.717,1881.69 295.387,1879.71 294.068,1878.39L290.111,1875.09C314.843,1847.39 341.882,1817.05 366.944,1788.7C368.922,1786.39 372.55,1786.39 374.858,1788.37L434.873,1841.79C444.106,1850.03 464.551,1839.81 478.401,1831.23C483.017,1828.27 481.368,1821.34 475.763,1821.34C446.415,1817.05 434.873,1803.2 424.981,1794.3L405.855,1777.15C404.536,1776.16 403.876,1774.85 403.876,1773.2L400.579,1717.8C400.579,1714.83 397.941,1712.19 394.643,1712.52L371.347,1713.91L360.403,1702.97C360.907,1703.37 361.561,1703.62 362.327,1703.62L399.919,1701.64C400.579,1701.64 401.238,1701.31 401.898,1700.65L424.651,1675.59C425.64,1674.27 427.289,1674.27 428.608,1675.26L431.576,1678.23C432.895,1679.22 432.895,1680.87 431.905,1682.18L409.152,1707.25C408.823,1707.58 408.493,1708.57 408.493,1709.23L410.471,1746.82C410.471,1749.45 413.769,1750.77 415.418,1748.8L742.864,1386.4C743.193,1386.07 743.523,1385.74 743.523,1385.41L768.584,1309.89C768.957,1308.9 768.722,1308.05 768.179,1307.49L1000,1539.31ZM758.667,1300.79L765.097,1307.22C764.817,1307.39 764.547,1307.62 764.298,1307.91L737.258,1339.9C738.247,1341.22 738.906,1342.54 739.236,1343.86C740.555,1348.8 737.917,1354.08 733.301,1356.06C727.035,1358.7 720.11,1355.4 718.462,1349.13C716.813,1343.53 720.11,1337.59 725.716,1335.94C727.695,1335.28 729.673,1335.28 731.652,1335.94L758.692,1303.63C759.545,1302.6 759.339,1301.49 758.667,1300.79ZM660.635,1303.13L691.618,1334.12C690.454,1334.73 689.29,1335.34 688.124,1335.94C688.124,1336.27 687.795,1336.27 687.465,1336.6L479.116,1566.98L279.257,1367.12C281.129,1368.86 283.657,1369.91 286.484,1369.91L509.068,1369.91C515.003,1369.91 519.62,1365.29 519.62,1359.36L519.62,1354.08C519.62,1348.14 515.003,1343.53 509.068,1343.53L443.313,1343.53L423.577,1323.79C425.426,1325.41 427.868,1326.38 430.586,1326.38L653.17,1326.38C659.106,1326.38 663.723,1321.76 663.723,1315.83L663.723,1310.55C663.723,1307.63 662.522,1305.03 660.635,1303.13ZM282.325,1647.81L349.71,1715.2L339.244,1715.82C337.925,1716.15 336.277,1715.49 335.287,1714.5L316.162,1697.35C306.269,1688.78 291.1,1678.89 283.516,1650.2C283.28,1649.25 282.863,1648.45 282.325,1647.81ZM267.688,1693.73L331.99,1750.77C330.856,1752.05 329.718,1753.33 328.576,1754.62L267.688,1693.73ZM232.404,1853.66L238.34,1858.6L238.203,1859.46L232.404,1853.66Z" style="fill:rgb(158,131,21);"/>
            </g>
            <g id="Icon" transform="matrix(0.6,0,0,0.6,640,200)">
                <g transform="matrix(5.4959,0,0,5.4959,463.172,-2335.76)">
                    <path d="M200.3,586.1C196.1,588.7 189.9,591.8 187.1,589.3L168.9,573.1C168.2,572.5 167.1,572.5 166.5,573.2C158.9,581.8 150.7,591 143.2,599.4L144.4,600.4C144.8,600.8 144.9,601.4 144.5,601.8L141.7,605.1C141.3,605.5 140.7,605.6 140.3,605.2L138.7,603.9L128,606.9C126.8,607.2 125.6,606.2 125.8,605L127.5,594.4L125.7,592.9C125.3,592.5 125.2,591.9 125.6,591.5L128.4,588.2C128.8,587.8 129.4,587.7 129.8,588.1L131.3,589.4C139.2,580.5 147.9,570.7 155.9,561.7L136.4,544.4C133.6,541.9 135.9,535.4 138,530.9C138.7,529.4 140.8,529.6 141.2,531.2C143.5,539.9 148.1,542.9 151.1,545.5L156.9,550.7C157.2,551 157.7,551.2 158.1,551.1L174.9,550.1C175.9,550 176.7,550.8 176.7,551.7L177.7,568.5C177.7,569 177.9,569.4 178.3,569.7L184.1,574.9C187.1,577.6 190.6,581.8 199.5,583.1C201.2,583.1 201.7,585.2 200.3,586.1Z" style="fill:white;"/>
                </g>
                <g transform="matrix(5.4959,0,0,5.4959,463.172,-2335.76)">
                    <path d="M288.3,428L280.7,450.9C280.7,451 280.6,451.1 280.5,451.2L181.2,561.1C180.7,561.7 179.7,561.3 179.7,560.5L179.1,549.1C179.1,548.9 179.2,548.6 179.3,548.5L186.2,540.9C186.5,540.5 186.5,540 186.1,539.7L185.2,538.8C184.8,538.5 184.3,538.5 184,538.9L177.1,546.5C176.9,546.7 176.7,546.8 176.5,546.8L165.1,547.4C164.3,547.4 163.9,546.5 164.4,545.9L263.7,436.1C263.8,436 263.9,436 263.9,435.9C270.8,432.3 277.6,428.7 284.5,425.1C285.1,424.8 285.8,425.5 285.3,426.1L277.1,435.9C276.5,435.7 275.9,435.7 275.3,435.9C273.6,436.4 272.6,438.2 273.1,439.9C273.6,441.8 275.7,442.8 277.6,442C279,441.4 279.8,439.8 279.4,438.3C279.3,437.9 279.1,437.5 278.8,437.1L287,427.4C287.6,426.7 288.6,427.2 288.3,428Z" style="fill:white;fill-rule:nonzero;"/>
                </g>
                <g transform="matrix(5.4959,0,0,5.4959,463.172,-2335.76)">
                    <path d="M209.6,438.2L142.1,438.2C140.3,438.2 138.9,439.6 138.9,441.4L138.9,443C138.9,444.8 140.3,446.2 142.1,446.2L209.6,446.2C211.4,446.2 212.8,444.8 212.8,443L212.8,441.4C212.8,439.6 211.4,438.2 209.6,438.2Z" style="fill:white;fill-rule:nonzero;"/>
                </g>
                <g transform="matrix(5.4959,0,0,5.4959,463.172,-2335.76)">
                    <path d="M253.3,425L185.8,425C184,425 182.6,426.4 182.6,428.2L182.6,429.8C182.6,431.6 184,433 185.8,433L253.3,433C255.1,433 256.5,431.6 256.5,429.8L256.5,428.2C256.5,426.4 255,425 253.3,425Z" style="fill:white;fill-rule:nonzero;"/>
                </g>
            </g>
        </g>
    </g>
    <defs>
        <linearGradient id="_Linear1" x1="0" y1="0" x2="1" y2="0" gradientUnits="userSpaceOnUse" gradientTransform="matrix(6.12323e-14,1000,-1000,6.12323e-14,1635.18,0)"><stop offset="0" style="stop-color:rgb(246,239,224);stop-opacity:1"/><stop offset="1" style="stop-color:rgb(205,157,21);stop-opacity:1"/></linearGradient>
    </defs>
</svg>
