<?xml version="1.0" encoding="UTF-8" standalone="no"?>
<!DOCTYPE svg PUBLIC "-//W3C//DTD SVG 1.1//EN" "http://www.w3.org/Graphics/SVG/1.1/DTD/svg11.dtd">
<svg width="100%" height="100%" viewBox="0 0 1238 300" version="1.1" xmlns="http://www.w3.org/2000/svg" xmlns:xlink="http://www.w3.org/1999/xlink" xml:space="preserve" xmlns:serif="http://www.serif.com/" style="fill-rule:evenodd;clip-rule:evenodd;stroke-linejoin:round;stroke-miterlimit:2;">
    <g>
        <rect id="Name" x="350" y="83.85" width="20.85" height="106.8" style="fill-rule:nonzero;"/>
        <path d="M430.85,190.65l-12.15,0c-7.4,0 -13.025,-2.2 -16.875,-6.6c-3.85,-4.4 -5.775,-9.65 -5.775,-15.75l-0,-45l-8.25,0l-0,-14.85l8.25,0l-0,-16.8l19.5,0l-0,16.8l13.8,0l-0,14.85l-13.8,0l-0,43.8c-0,4.7 2.25,7.05 6.75,7.05l8.55,0l-0,16.5Z" style="fill-rule:nonzero;"/>
        <path d="M505.85,166.95l0,2.25c-0.6,7.5 -3.775,13.15 -9.525,16.95c-5.75,3.8 -12.925,5.7 -21.525,5.7c-12.7,0 -21.6,-2.3 -26.7,-6.9c-4.7,-4.2 -7.05,-10.4 -7.05,-18.6l0,-1.8l17.7,0c0,4.6 1.2,7.75 3.6,9.45c2.4,1.7 6.55,2.55 12.45,2.55c8,0 12,-2.9 12,-8.7c0,-4.8 -1.4,-8 -4.2,-9.6c-1.3,-0.8 -2.95,-1.4 -4.95,-1.8l-15.15,-2.55c-13.2,-2.1 -19.8,-10.35 -19.8,-24.75c0,-8 2.925,-14.225 8.775,-18.675c5.85,-4.45 13.275,-6.675 22.275,-6.675c20.5,0 30.75,8.85 30.75,26.55l0,1.95l-16.95,0c-0.2,-4.7 -1.45,-7.9 -3.75,-9.6c-2.3,-1.7 -5.525,-2.55 -9.675,-2.55c-4.15,0 -7.275,0.825 -9.375,2.475c-2.1,1.65 -3.15,3.475 -3.15,5.475c0,5.7 2.3,8.95 6.9,9.75l18.15,3.3c12.8,2.4 19.2,11 19.2,25.8Z" style="fill-rule:nonzero;"/>
        <path d="M604.25,136.8l0.15,11.55c-0.4,7.3 -1.3,13.45 -2.7,18.45c-1.4,5 -4.15,9.55 -8.25,13.65c-6.8,6.8 -16.7,10.2 -29.7,10.2c-15.3,0 -25.8,-2.025 -31.5,-6.075c-5.7,-4.05 -8.55,-11.375 -8.55,-21.975l-0,-78.75l41.55,0c12,0 21.4,3.4 28.2,10.2c5.5,5.5 8.75,12.2 9.75,20.1c0.7,5.6 1.05,13.15 1.05,22.65Zm-25.35,28.65c1.9,-2.3 3.125,-5.475 3.675,-9.525c0.55,-4.05 0.825,-10.375 0.825,-18.975c0,-8.6 -0.275,-14.825 -0.825,-18.675c-0.55,-3.85 -1.775,-6.925 -3.675,-9.225c-3.6,-4.4 -8.8,-6.6 -15.6,-6.6l-18.75,0l0,59.1c0,4 1.35,6.75 4.05,8.25c2.7,1.5 7.525,2.25 14.475,2.25c6.95,0 12.225,-2.2 15.825,-6.6Z" style="fill-rule:nonzero;"/>
        <path d="M680,190.65l-13.05,0l-6,-10.35l-20.85,11.25c-11.6,0 -19.4,-4.2 -23.4,-12.6c-2,-4.1 -3.375,-8.525 -4.125,-13.275c-0.75,-4.75 -1.125,-9.7 -1.125,-14.85c0,-5.15 0.05,-8.95 0.15,-11.4c0.1,-2.45 0.35,-5.3 0.75,-8.55c0.4,-3.25 0.975,-5.975 1.725,-8.175c0.75,-2.2 1.825,-4.475 3.225,-6.825c1.4,-2.35 3.1,-4.225 5.1,-5.625c4.5,-3.1 10.35,-4.65 17.55,-4.65l20.55,0l19.5,-1.2l0,86.25Zm-19.5,-27.3l0,-40.2l-14.85,0c-5.5,0 -9.325,2.1 -11.475,6.3c-2.15,4.2 -3.225,10.475 -3.225,18.825c0,8.35 1.025,14.225 3.075,17.625c2.05,3.4 5.925,5.1 11.625,5.1l14.85,-7.65Z" style="fill-rule:nonzero;"/>
        <path d="M767.6,190.65l-19.5,0l-0,-54.75c-0,-4.9 -1,-8.25 -3,-10.05c-2,-1.8 -4.8,-2.7 -8.4,-2.7l-17.55,7.35l-0,60.15l-19.5,0l-0,-85.65l14.55,0l4.5,10.2l24,-11.1c6.7,0 12.525,2.475 17.475,7.425c4.95,4.95 7.425,12.175 7.425,21.675l-0,57.45Z" style="fill-rule:nonzero;"/>
        <path d="M829.1,105.6l19.5,-1.2l-0,82.35c-0,9.5 -2.675,16.775 -8.025,21.825c-5.35,5.05 -13.275,7.575 -23.775,7.575c-8.1,0 -15.2,-1.6 -21.3,-4.8c-3.2,-1.6 -5.75,-4 -7.65,-7.2c-1.9,-3.2 -2.85,-7 -2.85,-11.4l18.15,-0.9c-0,2.8 1,4.8 3,6c2,1.2 5.425,1.8 10.275,1.8c4.85,0 8.15,-1.2 9.9,-3.6c1.75,-2.4 2.625,-5.85 2.625,-10.35l0.75,-12.9l-21,11.25c-11.5,0 -19.25,-3.9 -23.25,-11.7c-3.6,-6.9 -5.4,-15.35 -5.4,-25.35c-0,-11.9 0.9,-20.3 2.7,-25.2c1.9,-5.4 4.6,-9.3 8.1,-11.7c4.5,-3 10.4,-4.5 17.7,-4.5l20.55,0Zm-0,50.25l-0,-32.7l-14.85,0c-5.6,0 -9.45,1.9 -11.55,5.7c-2.1,3.8 -3.15,9.1 -3.15,15.9c-0,6.8 1.075,11.625 3.225,14.475c2.15,2.85 5.975,4.275 11.475,4.275l14.85,-7.65Z" style="fill-rule:nonzero;"/>
        <path d="M934.55,152.4l-49.95,0c-0,7.8 1.225,13.5 3.675,17.1c2.45,3.6 7.375,5.4 14.775,5.4c4.8,0 8.35,-1.525 10.65,-4.575c2.3,-3.05 3.45,-5.975 3.45,-8.775l17.55,0c-0,10.7 -2.875,18.55 -8.625,23.55c-5.75,5 -13.35,7.5 -22.8,7.5c-9.45,0 -16.775,-1.35 -21.975,-4.05c-10.7,-5.5 -16.05,-20.1 -16.05,-43.8c-0,-14.1 3.05,-24.425 9.15,-30.975c6.1,-6.55 15.4,-9.825 27.9,-9.825c21.7,0 32.55,12.05 32.55,36.15c-0,2.6 -0.1,6.7 -0.3,12.3Zm-49.5,-13.35l32.1,0c-0,-6.6 -1.25,-11.4 -3.75,-14.4c-2.5,-3 -6.325,-4.5 -11.475,-4.5c-5.15,0 -9.25,1.525 -12.3,4.575c-3.05,3.05 -4.575,7.825 -4.575,14.325Z" style="fill-rule:nonzero;"/>
        <path d="M998,105.3l-5.4,19.2c-1.5,-0.6 -3.2,-0.9 -5.1,-0.9c-5,0 -11.15,2.15 -18.45,6.45l-0,60.6l-19.5,0l-0,-85.65l14.55,0l4.5,7.5l20.7,-8.55c1,-0.1 2.35,-0.15 4.05,-0.15c1.7,0 3.25,0.5 4.65,1.5Z" style="fill-rule:nonzero;"/>
        <path d="M1057.4,151.95l-0,-7.8c-0,-7.4 -1.075,-13.05 -3.225,-16.95c-2.15,-3.9 -6.625,-5.85 -13.425,-5.85c-11,0 -16.5,7.4 -16.5,22.2l-0,7.8c-0,15.9 5.5,23.85 16.5,23.85c7.1,0 11.75,-2.65 13.95,-7.95c1.8,-4.2 2.7,-9.3 2.7,-15.3Zm19.5,-4.5c-0,18.5 -3.5,30.9 -10.5,37.2c-5.9,5.4 -14.45,8.1 -25.65,8.1c-14.3,0 -23.95,-4.2 -28.95,-12.6c-4.7,-7.7 -7.05,-18.6 -7.05,-32.7c-0,-13.2 2.35,-23.55 7.05,-31.05c5.2,-8.4 14.675,-12.6 28.425,-12.6c13.75,0 23.3,3.675 28.65,11.025c5.35,7.35 8.025,18.225 8.025,32.625Z" style="fill-rule:nonzero;"/>
        <path d="M1156.55,190.65l-14.55,0l-4.5,-10.2l-24,11.1c-6.7,0 -12.525,-2.475 -17.475,-7.425c-4.95,-4.95 -7.425,-12.175 -7.425,-21.675l-0,-57.45l19.5,0l-0,53.25c-0,9.5 3.8,14.25 11.4,14.25l17.55,-9.45l-0,-58.05l19.5,0l-0,85.65Z" style="fill-rule:nonzero;"/>
        <path d="M1237.25,166.95l-0,2.25c-0.6,7.5 -3.775,13.15 -9.525,16.95c-5.75,3.8 -12.925,5.7 -21.525,5.7c-12.7,0 -21.6,-2.3 -26.7,-6.9c-4.7,-4.2 -7.05,-10.4 -7.05,-18.6l-0,-1.8l17.7,0c-0,4.6 1.2,7.75 3.6,9.45c2.4,1.7 6.55,2.55 12.45,2.55c8,0 12,-2.9 12,-8.7c-0,-4.8 -1.4,-8 -4.2,-9.6c-1.3,-0.8 -2.95,-1.4 -4.95,-1.8l-15.15,-2.55c-13.2,-2.1 -19.8,-10.35 -19.8,-24.75c-0,-8 2.925,-14.225 8.775,-18.675c5.85,-4.45 13.275,-6.675 22.275,-6.675c20.5,0 30.75,8.85 30.75,26.55l-0,1.95l-16.95,0c-0.2,-4.7 -1.45,-7.9 -3.75,-9.6c-2.3,-1.7 -5.525,-2.55 -9.675,-2.55c-4.15,0 -7.275,0.825 -9.375,2.475c-2.1,1.65 -3.15,3.475 -3.15,5.475c-0,5.7 2.3,8.95 6.9,9.75l18.15,3.3c12.8,2.4 19.2,11 19.2,25.8Z" style="fill-rule:nonzero;"/>
        <g id="Logo">
            <path id="Box" d="M300,30l-0,240c-0,16.557 -13.443,30 -30,30l-240,-0c-16.557,-0 -30,-13.443 -30,-30l0,-240c0,-16.557 13.443,-30 30,-30l240,0c16.557,0 30,13.443 30,30Z" style="fill:url(#_Linear1);"/>
            <path id="Shadow" d="M300,131.794l-0,138.206c-0,16.557 -13.443,30 -30,30l-139.162,-0l-60.38,-60.381c0.415,0.321 0.977,0.468 1.539,0.328l10.585,-2.968l1.582,1.286c0.396,0.396 0.99,0.297 1.385,-0.099l2.77,-3.264c0.396,-0.396 0.297,-0.99 -0.099,-1.385l-1.187,-0.99c7.42,-8.309 15.532,-17.411 23.05,-25.918c0.594,-0.693 1.682,-0.693 2.374,-0.099l18.005,16.026c2.77,2.473 8.903,-0.594 13.058,-3.166c1.385,-0.89 0.891,-2.968 -0.791,-2.968c-8.805,-1.286 -12.267,-5.441 -15.235,-8.112l-5.738,-5.144c-0.395,-0.297 -0.593,-0.692 -0.593,-1.187l-0.989,-16.619c-0,-0.891 -0.792,-1.682 -1.781,-1.583l-6.989,0.416l-3.283,-3.283c0.151,0.121 0.347,0.196 0.577,0.196l11.278,-0.594c0.198,0 0.395,-0.099 0.593,-0.297l6.826,-7.518c0.297,-0.396 0.792,-0.396 1.187,-0.099l0.891,0.89c0.395,0.297 0.395,0.792 0.099,1.188l-6.826,7.518c-0.099,0.099 -0.198,0.396 -0.198,0.593l0.593,11.278c0,0.791 0.99,1.187 1.484,0.594l98.234,-108.72c0.099,-0.099 0.198,-0.198 0.198,-0.297l7.518,-22.654c0.112,-0.298 0.042,-0.554 -0.121,-0.72l69.546,69.546Zm-72.4,-71.556l1.929,1.929c-0.084,0.052 -0.165,0.12 -0.24,0.207l-8.112,9.596c0.297,0.396 0.495,0.791 0.594,1.187c0.396,1.484 -0.396,3.067 -1.781,3.66c-1.879,0.792 -3.957,-0.197 -4.451,-2.077c-0.495,-1.682 0.494,-3.462 2.176,-3.957c0.593,-0.198 1.187,-0.198 1.781,-0l8.112,-9.695c0.255,-0.307 0.194,-0.64 -0.008,-0.85Zm-29.41,0.703l9.295,9.295c-0.349,0.182 -0.698,0.365 -1.048,0.547c0,0.099 -0.099,0.099 -0.198,0.198l-62.504,69.114l-59.958,-59.958c0.562,0.521 1.32,0.835 2.168,0.835l66.775,0c1.781,0 3.166,-1.385 3.166,-3.165l-0,-1.583c-0,-1.781 -1.385,-3.166 -3.166,-3.166l-19.726,0l-5.921,-5.921c0.555,0.487 1.287,0.777 2.103,0.777l66.775,0c1.781,0 3.166,-1.385 3.166,-3.166l-0,-1.582c-0,-0.877 -0.36,-1.659 -0.927,-2.225Zm-113.493,103.403l20.216,20.215l-3.14,0.187c-0.395,0.099 -0.89,-0.099 -1.187,-0.396l-5.737,-5.144c-2.968,-2.572 -7.519,-5.54 -9.794,-14.146c-0.071,-0.284 -0.196,-0.523 -0.358,-0.716Zm-4.391,13.774l19.291,17.114c-0.34,0.383 -0.682,0.767 -1.024,1.152l-18.267,-18.266Zm-10.585,47.979l1.781,1.484l-0.041,0.256l-1.74,-1.74Z" style="fill:#9e8315;"/>
            <g id="Icon">
                <path d="M143.52,219.37c-4.155,2.572 -10.288,5.639 -13.058,3.166l-18.005,-16.026c-0.692,-0.594 -1.78,-0.594 -2.374,0.099c-7.518,8.507 -15.63,17.609 -23.05,25.918l1.187,0.99c0.396,0.395 0.495,0.989 0.099,1.385l-2.77,3.264c-0.395,0.396 -0.989,0.495 -1.385,0.099l-1.582,-1.286l-10.585,2.968c-1.188,0.297 -2.375,-0.693 -2.177,-1.88l1.682,-10.486l-1.781,-1.484c-0.395,-0.396 -0.494,-0.989 -0.099,-1.385l2.77,-3.264c0.396,-0.396 0.99,-0.495 1.385,-0.099l1.484,1.286c7.815,-8.805 16.422,-18.499 24.336,-27.403l-19.291,-17.114c-2.77,-2.473 -0.494,-8.903 1.583,-13.355c0.693,-1.484 2.77,-1.286 3.166,0.297c2.275,8.606 6.826,11.574 9.794,14.146l5.737,5.144c0.297,0.297 0.792,0.495 1.187,0.396l16.62,-0.989c0.989,-0.099 1.781,0.692 1.781,1.583l0.989,16.619c-0,0.495 0.198,0.89 0.593,1.187l5.738,5.144c2.968,2.671 6.43,6.826 15.235,8.112c1.682,0 2.176,2.078 0.791,2.968Z" style="fill:#fff;"/>
                <path d="M230.575,62.968l-7.518,22.654c-0,0.099 -0.099,0.198 -0.198,0.297l-98.234,108.72c-0.494,0.593 -1.484,0.197 -1.484,-0.594l-0.593,-11.278c-0,-0.197 0.099,-0.494 0.198,-0.593l6.826,-7.518c0.296,-0.396 0.296,-0.891 -0.099,-1.188l-0.891,-0.89c-0.395,-0.297 -0.89,-0.297 -1.187,0.099l-6.826,7.518c-0.198,0.198 -0.395,0.297 -0.593,0.297l-11.278,0.594c-0.791,-0 -1.187,-0.891 -0.692,-1.484l98.233,-108.621c0.099,-0.099 0.198,-0.099 0.198,-0.198c6.826,-3.561 13.553,-7.123 20.379,-10.684c0.594,-0.297 1.286,0.396 0.792,0.989l-8.112,9.695c-0.594,-0.198 -1.188,-0.198 -1.781,-0c-1.682,0.495 -2.671,2.275 -2.176,3.957c0.494,1.88 2.572,2.869 4.451,2.077c1.385,-0.593 2.177,-2.176 1.781,-3.66c-0.099,-0.396 -0.297,-0.791 -0.594,-1.187l8.112,-9.596c0.594,-0.692 1.583,-0.198 1.286,0.594Z" style="fill:#fff;fill-rule:nonzero;"/>
                <path d="M152.72,73.058l-66.775,0c-1.781,0 -3.165,1.385 -3.165,3.166l-0,1.583c-0,1.78 1.384,3.165 3.165,3.165l66.775,0c1.781,0 3.166,-1.385 3.166,-3.165l-0,-1.583c-0,-1.781 -1.385,-3.166 -3.166,-3.166Z" style="fill:#fff;fill-rule:nonzero;"/>
                <path d="M195.951,60l-66.775,-0c-1.781,-0 -3.166,1.385 -3.166,3.166l0,1.582c0,1.781 1.385,3.166 3.166,3.166l66.775,0c1.781,0 3.166,-1.385 3.166,-3.166l-0,-1.582c-0,-1.781 -1.484,-3.166 -3.166,-3.166Z" style="fill:#fff;fill-rule:nonzero;"/>
            </g>
        </g>
    </g>
    <defs>
        <linearGradient id="_Linear1" x1="0" y1="0" x2="1" y2="0" gradientUnits="userSpaceOnUse" gradientTransform="matrix(1.83697e-14,300,-300,1.83697e-14,160.554,0)"><stop offset="0" style="stop-color:#f6efe0;stop-opacity:1"/><stop offset="1" style="stop-color:#cd9d15;stop-opacity:1"/></linearGradient>
    </defs>
</svg>
