<?xml version="1.0" encoding="UTF-8" standalone="no"?>
<!DOCTYPE svg PUBLIC "-//W3C//DTD SVG 1.1//EN" "http://www.w3.org/Graphics/SVG/1.1/DTD/svg11.dtd">
<svg width="100%" height="100%" viewBox="0 0 1000 1000" version="1.1" xmlns="http://www.w3.org/2000/svg" xmlns:xlink="http://www.w3.org/1999/xlink" xml:space="preserve" xmlns:serif="http://www.serif.com/" style="fill-rule:evenodd;clip-rule:evenodd;stroke-linejoin:round;stroke-miterlimit:2;">
    <g transform="matrix(1,0,0,1,-1200,0)">
        <g id="Icon" transform="matrix(1,0,0,1,1200,0)">
            <rect x="0" y="0" width="1000" height="1000" style="fill:none;"/>
            <clipPath id="_clip1">
                <rect x="0" y="0" width="1000" height="1000"/>
            </clipPath>
            <g clip-path="url(#_clip1)">
                <g>
                    <g transform="matrix(5.4959,0,0,5.4959,-636.828,-2335.76)">
                        <path d="M200.3,586.1C196.1,588.7 189.9,591.8 187.1,589.3L168.9,573.1C168.2,572.5 167.1,572.5 166.5,573.2C158.9,581.8 150.7,591 143.2,599.4L144.4,600.4C144.8,600.8 144.9,601.4 144.5,601.8L141.7,605.1C141.3,605.5 140.7,605.6 140.3,605.2L138.7,603.9L128,606.9C126.8,607.2 125.6,606.2 125.8,605L127.5,594.4L125.7,592.9C125.3,592.5 125.2,591.9 125.6,591.5L128.4,588.2C128.8,587.8 129.4,587.7 129.8,588.1L131.3,589.4C139.2,580.5 147.9,570.7 155.9,561.7L136.4,544.4C133.6,541.9 135.9,535.4 138,530.9C138.7,529.4 140.8,529.6 141.2,531.2C143.5,539.9 148.1,542.9 151.1,545.5L156.9,550.7C157.2,551 157.7,551.2 158.1,551.1L174.9,550.1C175.9,550 176.7,550.8 176.7,551.7L177.7,568.5C177.7,569 177.9,569.4 178.3,569.7L184.1,574.9C187.1,577.6 190.6,581.8 199.5,583.1C201.2,583.1 201.7,585.2 200.3,586.1Z" style="fill:rgb(243,208,34);"/>
                    </g>
                    <g transform="matrix(5.4959,0,0,5.4959,-636.828,-2335.76)">
                        <path d="M288.3,428L280.7,450.9C280.7,451 280.6,451.1 280.5,451.2L181.2,561.1C180.7,561.7 179.7,561.3 179.7,560.5L179.1,549.1C179.1,548.9 179.2,548.6 179.3,548.5L186.2,540.9C186.5,540.5 186.5,540 186.1,539.7L185.2,538.8C184.8,538.5 184.3,538.5 184,538.9L177.1,546.5C176.9,546.7 176.7,546.8 176.5,546.8L165.1,547.4C164.3,547.4 163.9,546.5 164.4,545.9L263.7,436.1C263.8,436 263.9,436 263.9,435.9C270.8,432.3 277.6,428.7 284.5,425.1C285.1,424.8 285.8,425.5 285.3,426.1L277.1,435.9C276.5,435.7 275.9,435.7 275.3,435.9C273.6,436.4 272.6,438.2 273.1,439.9C273.6,441.8 275.7,442.8 277.6,442C279,441.4 279.8,439.8 279.4,438.3C279.3,437.9 279.1,437.5 278.8,437.1L287,427.4C287.6,426.7 288.6,427.2 288.3,428Z" style="fill:rgb(243,208,34);fill-rule:nonzero;"/>
                    </g>
                    <g transform="matrix(5.4959,0,0,5.4959,-636.828,-2335.76)">
                        <path d="M209.6,438.2L142.1,438.2C140.3,438.2 138.9,439.6 138.9,441.4L138.9,443C138.9,444.8 140.3,446.2 142.1,446.2L209.6,446.2C211.4,446.2 212.8,444.8 212.8,443L212.8,441.4C212.8,439.6 211.4,438.2 209.6,438.2Z" style="fill:rgb(243,208,34);fill-rule:nonzero;"/>
                    </g>
                    <g transform="matrix(5.4959,0,0,5.4959,-636.828,-2335.76)">
                        <path d="M253.3,425L185.8,425C184,425 182.6,426.4 182.6,428.2L182.6,429.8C182.6,431.6 184,433 185.8,433L253.3,433C255.1,433 256.5,431.6 256.5,429.8L256.5,428.2C256.5,426.4 255,425 253.3,425Z" style="fill:rgb(243,208,34);fill-rule:nonzero;"/>
                    </g>
                </g>
            </g>
        </g>
    </g>
</svg>
