<?xml version="1.0" encoding="UTF-8" standalone="no"?>
<!DOCTYPE svg PUBLIC "-//W3C//DTD SVG 1.1//EN" "http://www.w3.org/Graphics/SVG/1.1/DTD/svg11.dtd">
<svg width="100%" height="100%" viewBox="0 0 250 389" version="1.1" xmlns="http://www.w3.org/2000/svg" xmlns:xlink="http://www.w3.org/1999/xlink" xml:space="preserve" xmlns:serif="http://www.serif.com/" style="fill-rule:evenodd;clip-rule:evenodd;stroke-linejoin:round;stroke-miterlimit:2;">
    <g id="Name">
        <path d="M250,371.669l0,0.788c-0.21,2.628 -1.323,4.608 -3.337,5.939c-2.015,1.331 -4.529,1.997 -7.542,1.997c-4.449,0 -7.567,-0.806 -9.354,-2.417c-1.647,-1.472 -2.47,-3.644 -2.47,-6.517l-0,-0.631l6.201,0c0,1.612 0.42,2.716 1.261,3.311c0.841,0.596 2.295,0.894 4.362,0.894c2.803,-0 4.205,-1.016 4.205,-3.049c-0,-1.681 -0.491,-2.802 -1.472,-3.363c-0.455,-0.28 -1.033,-0.491 -1.734,-0.631l-5.308,-0.893c-4.625,-0.736 -6.937,-3.626 -6.937,-8.672c-0,-2.802 1.025,-4.983 3.074,-6.543c2.05,-1.559 4.651,-2.338 7.804,-2.338c7.183,-0 10.774,3.101 10.774,9.302l0,0.683l-5.939,0c-0.07,-1.647 -0.508,-2.768 -1.313,-3.363c-0.806,-0.596 -1.936,-0.894 -3.39,-0.894c-1.454,0 -2.549,0.289 -3.285,0.867c-0.736,0.578 -1.103,1.218 -1.103,1.919c-0,1.997 0.805,3.135 2.417,3.416l6.359,1.156c4.485,0.841 6.727,3.854 6.727,9.039Z" style="fill-rule:nonzero;"/>
        <path d="M221.726,379.973l-5.098,-0l-1.576,-3.574l-8.409,3.889c-2.348,-0 -4.388,-0.867 -6.123,-2.601c-1.734,-1.735 -2.601,-4.266 -2.601,-7.595l-0,-20.128l6.832,0l-0,18.657c-0,3.328 1.331,4.993 3.994,4.993l6.149,-3.311l-0,-20.339l6.832,0l-0,30.009Z" style="fill-rule:nonzero;"/>
        <path d="M186.988,366.414l-0,-2.733c-0,-2.593 -0.377,-4.572 -1.13,-5.939c-0.754,-1.366 -2.321,-2.049 -4.704,-2.049c-3.854,-0 -5.781,2.592 -5.781,7.778l0,2.732c0,5.571 1.927,8.357 5.781,8.357c2.488,-0 4.117,-0.929 4.888,-2.786c0.63,-1.471 0.946,-3.258 0.946,-5.36Zm6.832,-1.577c-0,6.482 -1.227,10.826 -3.679,13.034c-2.067,1.891 -5.063,2.837 -8.987,2.837c-5.01,0 -8.391,-1.471 -10.143,-4.414c-1.647,-2.698 -2.47,-6.517 -2.47,-11.457c0,-4.625 0.823,-8.251 2.47,-10.879c1.822,-2.943 5.142,-4.414 9.959,-4.414c4.818,-0 8.164,1.287 10.038,3.863c1.874,2.575 2.812,6.385 2.812,11.43Z" style="fill-rule:nonzero;"/>
        <path d="M166.176,350.069l-1.892,6.727c-0.525,-0.21 -1.121,-0.315 -1.787,-0.315c-1.751,-0 -3.906,0.753 -6.464,2.26l0,21.232l-6.832,-0l0,-30.009l5.098,0l1.577,2.628l7.252,-2.996c0.35,-0.035 0.823,-0.052 1.419,-0.052c0.596,-0 1.139,0.175 1.629,0.525Z" style="fill-rule:nonzero;"/>
        <path d="M143.946,366.571l-17.501,0c0,2.733 0.429,4.73 1.288,5.992c0.858,1.261 2.584,1.891 5.176,1.891c1.682,0 2.926,-0.534 3.732,-1.602c0.806,-1.069 1.208,-2.094 1.208,-3.075l6.149,0c0,3.749 -1.007,6.499 -3.022,8.251c-2.014,1.752 -4.677,2.628 -7.988,2.628c-3.311,-0 -5.877,-0.473 -7.699,-1.419c-3.749,-1.927 -5.623,-7.042 -5.623,-15.346c-0,-4.94 1.068,-8.557 3.206,-10.852c2.137,-2.295 5.395,-3.443 9.775,-3.443c7.602,0 11.404,4.222 11.404,12.666c-0,0.911 -0.035,2.347 -0.105,4.309Zm-17.343,-4.677l11.246,0c0,-2.312 -0.437,-3.994 -1.313,-5.045c-0.876,-1.051 -2.216,-1.577 -4.021,-1.577c-1.804,0 -3.241,0.535 -4.309,1.603c-1.069,1.069 -1.603,2.742 -1.603,5.019Z" style="fill-rule:nonzero;"/>
        <path d="M107,350.174l6.832,-0.42l0,28.852c0,3.329 -0.937,5.878 -2.811,7.647c-1.875,1.769 -4.651,2.654 -8.33,2.654c-2.838,-0 -5.326,-0.561 -7.463,-1.682c-1.121,-0.56 -2.014,-1.401 -2.68,-2.522c-0.666,-1.122 -0.999,-2.453 -0.999,-3.995l6.359,-0.315c0,0.981 0.351,1.682 1.051,2.102c0.701,0.421 1.901,0.631 3.6,0.631c1.7,-0 2.856,-0.421 3.469,-1.261c0.613,-0.841 0.92,-2.05 0.92,-3.627l0.262,-4.519l-7.357,3.941c-4.029,0 -6.745,-1.366 -8.146,-4.099c-1.261,-2.417 -1.892,-5.378 -1.892,-8.882c0,-4.169 0.315,-7.112 0.946,-8.829c0.666,-1.892 1.612,-3.258 2.838,-4.099c1.577,-1.051 3.644,-1.577 6.201,-1.577l7.2,0Zm0,17.606l0,-11.457l-5.203,0c-1.962,0 -3.311,0.666 -4.046,1.997c-0.736,1.332 -1.104,3.189 -1.104,5.571c0,2.383 0.377,4.073 1.13,5.072c0.753,0.998 2.093,1.497 4.02,1.497l5.203,-2.68Z" style="fill-rule:nonzero;"/>
        <path d="M85.453,379.973l-6.832,-0l-0,-19.183c-0,-1.716 -0.35,-2.89 -1.051,-3.521c-0.701,-0.63 -1.682,-0.946 -2.943,-0.946l-6.149,2.575l0,21.075l-6.832,-0l-0,-30.009l5.098,0l1.576,3.574l8.409,-3.889c2.347,-0 4.388,0.867 6.123,2.601c1.734,1.735 2.601,4.266 2.601,7.594l0,20.129Z" style="fill-rule:nonzero;"/>
        <path d="M54.761,379.973l-4.572,-0l-2.102,-3.627l-7.305,3.942c-4.064,-0 -6.797,-1.472 -8.198,-4.415c-0.701,-1.436 -1.183,-2.986 -1.446,-4.651c-0.262,-1.664 -0.394,-3.398 -0.394,-5.202c0,-1.805 0.018,-3.136 0.053,-3.995c0.035,-0.858 0.122,-1.856 0.262,-2.995c0.141,-1.139 0.342,-2.094 0.605,-2.864c0.263,-0.771 0.639,-1.568 1.13,-2.392c0.49,-0.823 1.086,-1.48 1.787,-1.97c1.576,-1.086 3.626,-1.63 6.148,-1.63l7.2,0l6.832,-0.42l0,30.219Zm-6.832,-9.565l0,-14.085l-5.202,0c-1.927,0 -3.268,0.736 -4.021,2.208c-0.753,1.471 -1.13,3.67 -1.13,6.595c0,2.926 0.359,4.984 1.078,6.175c0.718,1.191 2.075,1.787 4.073,1.787l5.202,-2.68Z" style="fill-rule:nonzero;"/>
        <path d="M28.222,361.106l0.052,4.046c-0.14,2.558 -0.455,4.713 -0.946,6.465c-0.49,1.751 -1.454,3.346 -2.89,4.782c-2.383,2.382 -5.851,3.574 -10.406,3.574c-5.361,-0 -9.039,-0.71 -11.036,-2.129c-1.997,-1.419 -2.996,-3.985 -2.996,-7.699l0,-27.591l14.557,0c4.205,0 7.498,1.191 9.881,3.574c1.927,1.927 3.065,4.274 3.416,7.042c0.245,1.962 0.368,4.607 0.368,7.936Zm-8.882,10.038c0.666,-0.806 1.095,-1.919 1.287,-3.338c0.193,-1.419 0.29,-3.635 0.29,-6.648c-0,-3.013 -0.097,-5.194 -0.29,-6.543c-0.192,-1.349 -0.621,-2.426 -1.287,-3.232c-1.261,-1.541 -3.083,-2.312 -5.466,-2.312l-6.569,-0l0,20.706c0,1.402 0.473,2.365 1.419,2.891c0.946,0.525 2.636,0.788 5.071,0.788c2.435,-0 4.284,-0.771 5.545,-2.312Z" style="fill-rule:nonzero;"/>
        <path d="M68.215,319.115l0,0.788c-0.21,2.628 -1.322,4.608 -3.337,5.939c-2.015,1.331 -4.528,1.997 -7.541,1.997c-4.45,-0 -7.568,-0.806 -9.355,-2.418c-1.647,-1.471 -2.47,-3.643 -2.47,-6.516l-0,-0.631l6.201,0c0,1.612 0.421,2.715 1.262,3.311c0.84,0.596 2.294,0.893 4.362,0.893c2.802,0 4.204,-1.016 4.204,-3.048c-0,-1.681 -0.491,-2.803 -1.472,-3.363c-0.455,-0.28 -1.033,-0.491 -1.734,-0.631l-5.308,-0.893c-4.625,-0.736 -6.937,-3.626 -6.937,-8.672c-0,-2.803 1.025,-4.984 3.074,-6.543c2.05,-1.559 4.651,-2.338 7.805,-2.338c7.182,-0 10.773,3.1 10.773,9.302l0,0.683l-5.938,-0c-0.07,-1.647 -0.508,-2.768 -1.314,-3.363c-0.806,-0.596 -1.936,-0.894 -3.39,-0.894c-1.454,0 -2.549,0.289 -3.285,0.867c-0.735,0.578 -1.103,1.218 -1.103,1.918c-0,1.998 0.806,3.136 2.417,3.416l6.359,1.157c4.485,0.841 6.727,3.854 6.727,9.039Z" style="fill-rule:nonzero;"/>
        <path d="M39.678,301.089l-5.413,-0l-0.525,-11.089l6.464,-0l-0.526,11.089Z" style="fill-rule:nonzero;"/>
        <path d="M28.327,327.419l-4.257,-0c-2.593,-0 -4.564,-0.771 -5.913,-2.313c-1.348,-1.541 -2.023,-3.381 -2.023,-5.518l0,-15.766l-2.89,-0l-0,-5.203l2.89,-0l0,-5.886l6.832,-0l0,5.886l4.835,-0l0,5.203l-4.835,-0l0,15.346c0,1.646 0.788,2.47 2.365,2.47l2.996,-0l-0,5.781Z" style="fill-rule:nonzero;"/>
        <rect x="0" y="290" width="7.305" height="37.419" style="fill-rule:nonzero;"/>
    </g>
    <g id="Icon">
        <path id="Box" d="M250,25l0,200c0,13.798 -11.202,25 -25,25l-200,0c-13.798,0 -25,-11.202 -25,-25l0,-200c0,-13.798 11.202,-25 25,-25l200,0c13.798,0 25,11.202 25,25Z" style="fill:url(#_Linear1);"/>
        <path id="Shadow" d="M250,109.829l0,115.171c0,13.798 -11.202,25 -25,25l-115.968,0l-50.317,-50.317c0.346,0.267 0.814,0.39 1.282,0.273l8.821,-2.473l1.319,1.071c0.33,0.33 0.824,0.248 1.154,-0.082l2.308,-2.721c0.33,-0.329 0.248,-0.824 -0.082,-1.154l-0.989,-0.824c6.183,-6.925 12.943,-14.509 19.208,-21.599c0.495,-0.577 1.401,-0.577 1.978,-0.083l15.004,13.356c2.309,2.06 7.42,-0.495 10.882,-2.639c1.154,-0.741 0.742,-2.473 -0.659,-2.473c-7.337,-1.071 -10.223,-4.534 -12.696,-6.76l-4.781,-4.286c-0.33,-0.248 -0.495,-0.578 -0.495,-0.99l-0.824,-13.849c-0,-0.742 -0.66,-1.402 -1.484,-1.319l-5.824,0.346l-2.736,-2.736c0.126,0.101 0.289,0.164 0.481,0.164l9.398,-0.495c0.165,0 0.33,-0.082 0.494,-0.247l5.689,-6.266c0.247,-0.329 0.659,-0.329 0.989,-0.082l0.742,0.742c0.33,0.247 0.33,0.66 0.082,0.989l-5.688,6.266c-0.082,0.082 -0.165,0.329 -0.165,0.494l0.495,9.398c-0,0.66 0.824,0.989 1.236,0.495l81.862,-90.6c0.082,-0.083 0.165,-0.165 0.165,-0.247l6.265,-18.879c0.093,-0.248 0.034,-0.461 -0.101,-0.6l57.955,57.956Zm-60.333,-59.631l1.607,1.608c-0.07,0.043 -0.137,0.1 -0.2,0.173l-6.76,7.996c0.248,0.33 0.413,0.66 0.495,0.989c0.33,1.237 -0.33,2.556 -1.484,3.051c-1.566,0.659 -3.297,-0.165 -3.71,-1.732c-0.412,-1.401 0.413,-2.885 1.814,-3.297c0.495,-0.165 0.989,-0.165 1.484,-0l6.76,-8.079c0.213,-0.256 0.162,-0.534 -0.006,-0.709Zm-24.508,0.586l7.746,7.746c-0.291,0.152 -0.583,0.304 -0.874,0.456c0,0.082 -0.082,0.082 -0.165,0.165l-52.087,57.595l-49.965,-49.965c0.468,0.434 1.1,0.696 1.807,0.696l55.646,-0c1.484,-0 2.638,-1.154 2.638,-2.638l-0,-1.319c-0,-1.484 -1.154,-2.638 -2.638,-2.638l-16.439,-0l-4.934,-4.934c0.462,0.405 1.073,0.647 1.753,0.647l55.646,0c1.483,0 2.638,-1.154 2.638,-2.638l-0,-1.319c-0,-0.731 -0.3,-1.382 -0.772,-1.854Zm-94.578,86.169l16.846,16.846l-2.616,0.156c-0.33,0.082 -0.742,-0.082 -0.989,-0.33l-4.782,-4.287c-2.473,-2.143 -6.265,-4.616 -8.161,-11.788c-0.059,-0.237 -0.163,-0.436 -0.298,-0.597Zm-3.659,11.479l16.075,14.261c-0.283,0.319 -0.568,0.639 -0.853,0.961l-15.222,-15.222Zm-8.821,39.982l1.484,1.237l-0.034,0.213l-1.45,-1.45Z" style="fill:#9e8315;"/>
        <g id="Icon1" serif:id="Icon">
            <path d="M119.6,182.808c-3.462,2.144 -8.573,4.699 -10.882,2.639l-15.004,-13.356c-0.577,-0.494 -1.483,-0.494 -1.978,0.083c-6.265,7.09 -13.025,14.674 -19.208,21.599l0.989,0.824c0.33,0.33 0.412,0.825 0.082,1.154l-2.308,2.721c-0.33,0.33 -0.824,0.412 -1.154,0.082l-1.319,-1.071l-8.821,2.473c-0.989,0.247 -1.978,-0.577 -1.814,-1.567l1.402,-8.738l-1.484,-1.237c-0.33,-0.329 -0.412,-0.824 -0.082,-1.154l2.308,-2.72c0.33,-0.33 0.824,-0.413 1.154,-0.083l1.237,1.072c6.512,-7.337 13.684,-15.416 20.279,-22.836l-16.075,-14.261c-2.308,-2.061 -0.412,-7.42 1.319,-11.13c0.577,-1.236 2.308,-1.071 2.638,0.248c1.896,7.172 5.688,9.645 8.161,11.788l4.782,4.287c0.247,0.248 0.659,0.412 0.989,0.33l13.85,-0.824c0.824,-0.083 1.484,0.577 1.484,1.319l0.824,13.849c0,0.412 0.165,0.742 0.495,0.99l4.781,4.286c2.473,2.226 5.359,5.689 12.696,6.76c1.401,0 1.813,1.732 0.659,2.473Z" style="fill:#fff;"/>
            <path d="M192.146,52.473l-6.265,18.879c-0,0.082 -0.083,0.164 -0.165,0.247l-81.862,90.6c-0.412,0.494 -1.236,0.165 -1.236,-0.495l-0.495,-9.398c0,-0.165 0.083,-0.412 0.165,-0.494l5.688,-6.266c0.248,-0.329 0.248,-0.742 -0.082,-0.989l-0.742,-0.742c-0.33,-0.247 -0.742,-0.247 -0.989,0.082l-5.689,6.266c-0.164,0.165 -0.329,0.247 -0.494,0.247l-9.398,0.495c-0.66,-0 -0.989,-0.742 -0.577,-1.237l81.861,-90.517c0.083,-0.083 0.165,-0.083 0.165,-0.165c5.688,-2.968 11.294,-5.936 16.982,-8.904c0.495,-0.247 1.072,0.33 0.66,0.825l-6.76,8.079c-0.495,-0.165 -0.989,-0.165 -1.484,-0c-1.401,0.412 -2.226,1.896 -1.814,3.297c0.413,1.567 2.144,2.391 3.71,1.732c1.154,-0.495 1.814,-1.814 1.484,-3.051c-0.082,-0.329 -0.247,-0.659 -0.495,-0.989l6.76,-7.996c0.495,-0.578 1.319,-0.165 1.072,0.494Z" style="fill:#fff;fill-rule:nonzero;"/>
            <path d="M127.267,60.882l-55.646,-0c-1.484,-0 -2.638,1.154 -2.638,2.638l-0,1.319c-0,1.484 1.154,2.638 2.638,2.638l55.646,-0c1.484,-0 2.638,-1.154 2.638,-2.638l-0,-1.319c-0,-1.484 -1.154,-2.638 -2.638,-2.638Z" style="fill:#fff;fill-rule:nonzero;"/>
            <path d="M163.293,50l-55.646,0c-1.484,0 -2.638,1.154 -2.638,2.638l-0,1.319c-0,1.484 1.154,2.638 2.638,2.638l55.646,0c1.483,0 2.638,-1.154 2.638,-2.638l-0,-1.319c-0,-1.484 -1.237,-2.638 -2.638,-2.638Z" style="fill:#fff;fill-rule:nonzero;"/>
        </g>
    </g>
    <defs>
        <linearGradient id="_Linear1" x1="0" y1="0" x2="1" y2="0" gradientUnits="userSpaceOnUse" gradientTransform="matrix(1.53081e-14,250,-250,1.53081e-14,133.795,0)"><stop offset="0" style="stop-color:#f6efe0;stop-opacity:1"/><stop offset="1" style="stop-color:#cd9d15;stop-opacity:1"/></linearGradient>
    </defs>
</svg>
