<?xml version="1.0" encoding="UTF-8" standalone="no"?>
<!DOCTYPE svg PUBLIC "-//W3C//DTD SVG 1.1//EN" "http://www.w3.org/Graphics/SVG/1.1/DTD/svg11.dtd">
<svg width="100%" height="100%" viewBox="0 0 460 170" version="1.1" xmlns="http://www.w3.org/2000/svg" xmlns:xlink="http://www.w3.org/1999/xlink" xml:space="preserve" xmlns:serif="http://www.serif.com/" style="fill-rule:evenodd;clip-rule:evenodd;stroke-linejoin:round;stroke-miterlimit:2;">
    <g id="Name">
        <path d="M460,117.216l0,0.788c-0.21,2.628 -1.323,4.607 -3.337,5.939c-2.015,1.331 -4.529,1.997 -7.542,1.997c-4.449,-0 -7.567,-0.806 -9.354,-2.418c-1.647,-1.471 -2.47,-3.644 -2.47,-6.517l-0,-0.63l6.201,-0c0,1.611 0.42,2.715 1.261,3.311c0.841,0.595 2.295,0.893 4.362,0.893c2.803,0 4.205,-1.016 4.205,-3.048c-0,-1.682 -0.491,-2.803 -1.472,-3.363c-0.455,-0.281 -1.033,-0.491 -1.734,-0.631l-5.308,-0.894c-4.625,-0.735 -6.937,-3.626 -6.937,-8.671c-0,-2.803 1.025,-4.984 3.074,-6.543c2.05,-1.559 4.651,-2.339 7.804,-2.339c7.183,0 10.774,3.101 10.774,9.302l0,0.684l-5.939,-0c-0.07,-1.647 -0.508,-2.768 -1.313,-3.364c-0.806,-0.595 -1.936,-0.893 -3.39,-0.893c-1.454,-0 -2.549,0.289 -3.285,0.867c-0.736,0.578 -1.103,1.217 -1.103,1.918c-0,1.997 0.805,3.136 2.417,3.416l6.359,1.156c4.485,0.841 6.727,3.854 6.727,9.04Z" style="fill-rule:nonzero;"/>
        <path d="M431.726,125.519l-5.098,0l-1.576,-3.573l-8.409,3.889c-2.348,-0 -4.388,-0.868 -6.123,-2.602c-1.734,-1.734 -2.601,-4.266 -2.601,-7.594l-0,-20.128l6.832,-0l-0,18.657c-0,3.328 1.331,4.992 3.994,4.992l6.149,-3.311l-0,-20.338l6.832,-0l-0,30.008Z" style="fill-rule:nonzero;"/>
        <path d="M396.988,111.96l-0,-2.733c-0,-2.592 -0.377,-4.572 -1.13,-5.938c-0.754,-1.367 -2.321,-2.05 -4.704,-2.05c-3.854,0 -5.781,2.593 -5.781,7.778l0,2.733c0,5.571 1.927,8.356 5.781,8.356c2.488,0 4.117,-0.928 4.888,-2.785c0.63,-1.472 0.946,-3.259 0.946,-5.361Zm6.832,-1.576c-0,6.481 -1.227,10.826 -3.679,13.033c-2.067,1.892 -5.063,2.838 -8.987,2.838c-5.01,-0 -8.391,-1.472 -10.143,-4.415c-1.647,-2.697 -2.47,-6.516 -2.47,-11.456c0,-4.625 0.823,-8.251 2.47,-10.879c1.822,-2.943 5.142,-4.415 9.959,-4.415c4.818,0 8.164,1.288 10.038,3.863c1.874,2.575 2.812,6.385 2.812,11.431Z" style="fill-rule:nonzero;"/>
        <path d="M376.176,95.616l-1.892,6.727c-0.525,-0.21 -1.121,-0.315 -1.787,-0.315c-1.751,-0 -3.906,0.753 -6.464,2.259l0,21.232l-6.832,0l0,-30.008l5.098,-0l1.577,2.628l7.252,-2.996c0.35,-0.035 0.823,-0.053 1.419,-0.053c0.596,0 1.139,0.176 1.629,0.526Z" style="fill-rule:nonzero;"/>
        <path d="M353.946,112.118l-17.501,-0c0,2.733 0.429,4.73 1.288,5.991c0.858,1.261 2.584,1.892 5.176,1.892c1.682,0 2.926,-0.534 3.732,-1.603c0.806,-1.068 1.208,-2.093 1.208,-3.074l6.149,-0c0,3.749 -1.007,6.499 -3.022,8.251c-2.014,1.752 -4.677,2.627 -7.988,2.627c-3.311,0 -5.877,-0.473 -7.699,-1.419c-3.749,-1.927 -5.623,-7.042 -5.623,-15.345c-0,-4.94 1.068,-8.558 3.206,-10.853c2.137,-2.295 5.395,-3.442 9.775,-3.442c7.602,-0 11.404,4.222 11.404,12.665c-0,0.911 -0.035,2.348 -0.105,4.31Zm-17.343,-4.677l11.246,-0c0,-2.313 -0.437,-3.995 -1.313,-5.046c-0.876,-1.051 -2.216,-1.576 -4.021,-1.576c-1.804,-0 -3.241,0.534 -4.309,1.603c-1.069,1.068 -1.603,2.741 -1.603,5.019Z" style="fill-rule:nonzero;"/>
        <path d="M317,95.721l6.832,-0.42l0,28.852c0,3.328 -0.937,5.877 -2.811,7.646c-1.875,1.77 -4.651,2.654 -8.33,2.654c-2.838,0 -5.326,-0.56 -7.463,-1.681c-1.121,-0.561 -2.014,-1.402 -2.68,-2.523c-0.666,-1.121 -0.999,-2.452 -0.999,-3.994l6.359,-0.315c0,0.981 0.351,1.681 1.051,2.102c0.701,0.42 1.901,0.63 3.6,0.63c1.7,0 2.856,-0.42 3.469,-1.261c0.613,-0.841 0.92,-2.049 0.92,-3.626l0.262,-4.52l-7.357,3.942c-4.029,-0 -6.745,-1.367 -8.146,-4.099c-1.261,-2.418 -1.892,-5.378 -1.892,-8.882c0,-4.169 0.315,-7.112 0.946,-8.829c0.666,-1.892 1.612,-3.258 2.838,-4.099c1.577,-1.051 3.644,-1.577 6.201,-1.577l7.2,0Zm0,17.606l0,-11.457l-5.203,-0c-1.962,-0 -3.311,0.666 -4.046,1.997c-0.736,1.331 -1.104,3.188 -1.104,5.571c0,2.382 0.377,4.073 1.13,5.071c0.753,0.999 2.093,1.498 4.02,1.498l5.203,-2.68Z" style="fill-rule:nonzero;"/>
        <path d="M295.453,125.519l-6.832,0l-0,-19.182c-0,-1.717 -0.35,-2.891 -1.051,-3.521c-0.701,-0.631 -1.682,-0.946 -2.943,-0.946l-6.149,2.575l0,21.074l-6.832,0l-0,-30.008l5.098,-0l1.576,3.574l8.409,-3.889c2.347,-0 4.388,0.867 6.123,2.601c1.734,1.734 2.601,4.266 2.601,7.594l0,20.128Z" style="fill-rule:nonzero;"/>
        <path d="M264.761,125.519l-4.572,0l-2.102,-3.626l-7.305,3.942c-4.064,-0 -6.797,-1.472 -8.198,-4.415c-0.701,-1.436 -1.183,-2.987 -1.446,-4.651c-0.262,-1.664 -0.394,-3.399 -0.394,-5.203c0,-1.804 0.018,-3.136 0.053,-3.994c0.035,-0.858 0.122,-1.857 0.262,-2.996c0.141,-1.138 0.342,-2.093 0.605,-2.864c0.263,-0.771 0.639,-1.568 1.13,-2.391c0.49,-0.823 1.086,-1.48 1.787,-1.971c1.576,-1.086 3.626,-1.629 6.148,-1.629l7.2,0l6.832,-0.42l0,30.218Zm-6.832,-9.565l0,-14.084l-5.202,-0c-1.927,-0 -3.268,0.736 -4.021,2.207c-0.753,1.472 -1.13,3.67 -1.13,6.596c0,2.925 0.359,4.984 1.078,6.175c0.718,1.191 2.075,1.787 4.073,1.787l5.202,-2.681Z" style="fill-rule:nonzero;"/>
        <path d="M238.222,106.652l0.052,4.047c-0.14,2.558 -0.455,4.712 -0.946,6.464c-0.49,1.752 -1.454,3.346 -2.89,4.783c-2.383,2.382 -5.851,3.573 -10.406,3.573c-5.361,0 -9.039,-0.709 -11.036,-2.128c-1.997,-1.419 -2.996,-3.986 -2.996,-7.699l0,-27.591l14.557,-0c4.205,-0 7.498,1.191 9.881,3.573c1.927,1.927 3.065,4.275 3.416,7.043c0.245,1.962 0.368,4.607 0.368,7.935Zm-8.882,10.038c0.666,-0.806 1.095,-1.918 1.287,-3.337c0.193,-1.419 0.29,-3.635 0.29,-6.648c-0,-3.013 -0.097,-5.194 -0.29,-6.543c-0.192,-1.349 -0.621,-2.426 -1.287,-3.232c-1.261,-1.542 -3.083,-2.313 -5.466,-2.313l-6.569,0l0,20.707c0,1.401 0.473,2.365 1.419,2.89c0.946,0.526 2.636,0.789 5.071,0.789c2.435,-0 4.284,-0.771 5.545,-2.313Z" style="fill-rule:nonzero;"/>
        <path d="M278.215,64.662l0,0.788c-0.21,2.628 -1.322,4.607 -3.337,5.938c-2.015,1.332 -4.528,1.998 -7.541,1.998c-4.45,-0 -7.568,-0.806 -9.355,-2.418c-1.647,-1.471 -2.47,-3.644 -2.47,-6.517l-0,-0.63l6.201,-0c0,1.611 0.421,2.715 1.262,3.311c0.84,0.595 2.294,0.893 4.362,0.893c2.802,0 4.204,-1.016 4.204,-3.048c-0,-1.682 -0.491,-2.803 -1.472,-3.364c-0.455,-0.28 -1.033,-0.49 -1.734,-0.63l-5.308,-0.894c-4.625,-0.735 -6.937,-3.626 -6.937,-8.671c-0,-2.803 1.025,-4.984 3.074,-6.543c2.05,-1.559 4.651,-2.339 7.805,-2.339c7.182,0 10.773,3.101 10.773,9.302l0,0.684l-5.938,-0c-0.07,-1.647 -0.508,-2.768 -1.314,-3.364c-0.806,-0.596 -1.936,-0.893 -3.39,-0.893c-1.454,-0 -2.549,0.289 -3.285,0.867c-0.735,0.578 -1.103,1.217 -1.103,1.918c-0,1.997 0.806,3.136 2.417,3.416l6.359,1.156c4.485,0.841 6.727,3.854 6.727,9.04Z" style="fill-rule:nonzero;"/>
        <path d="M249.678,46.635l-5.413,0l-0.525,-11.088l6.464,-0l-0.526,11.088Z" style="fill-rule:nonzero;"/>
        <path d="M238.327,72.965l-4.257,0c-2.593,0 -4.564,-0.771 -5.913,-2.312c-1.348,-1.542 -2.023,-3.381 -2.023,-5.518l0,-15.767l-2.89,0l-0,-5.203l2.89,0l0,-5.886l6.832,0l0,5.886l4.835,0l0,5.203l-4.835,0l0,15.346c0,1.647 0.788,2.47 2.365,2.47l2.996,0l-0,5.781Z" style="fill-rule:nonzero;"/>
        <rect x="210" y="35.547" width="7.305" height="37.419" style="fill-rule:nonzero;"/>
    </g>
    <g id="Icon">
        <path id="Box" d="M170,17l0,136c0,9.383 -7.617,17 -17,17l-136,0c-9.383,0 -17,-7.617 -17,-17l0,-136c0,-9.383 7.617,-17 17,-17l136,0c9.383,0 17,7.617 17,17Z" style="fill:url(#_Linear1);"/>
        <path id="Shadow" d="M170,74.683l0,78.317c0,9.383 -7.617,17 -17,17l-78.858,0l-34.216,-34.216c0.235,0.182 0.554,0.265 0.872,0.186l5.998,-1.682l0.897,0.729c0.224,0.224 0.561,0.168 0.785,-0.056l1.57,-1.85c0.224,-0.224 0.168,-0.561 -0.056,-0.785l-0.673,-0.56c4.204,-4.709 8.801,-9.867 13.061,-14.688c0.337,-0.392 0.953,-0.392 1.346,-0.056l10.202,9.082c1.57,1.401 5.046,-0.337 7.4,-1.794c0.785,-0.505 0.505,-1.682 -0.448,-1.682c-4.99,-0.729 -6.952,-3.083 -8.633,-4.597l-3.252,-2.915c-0.224,-0.168 -0.336,-0.392 -0.336,-0.672l-0.561,-9.418c0,-0.505 -0.448,-0.953 -1.009,-0.897l-3.96,0.236l-1.86,-1.861c0.085,0.069 0.196,0.111 0.327,0.111l6.39,-0.336c0.112,-0 0.225,-0.056 0.337,-0.168l3.868,-4.261c0.168,-0.224 0.448,-0.224 0.672,-0.056l0.505,0.505c0.224,0.168 0.224,0.448 0.056,0.672l-3.868,4.261c-0.056,0.056 -0.112,0.224 -0.112,0.336l0.336,6.391c0,0.448 0.561,0.673 0.841,0.336l55.666,-61.608c0.056,-0.056 0.112,-0.112 0.112,-0.168l4.26,-12.837c0.064,-0.169 0.024,-0.314 -0.069,-0.408l39.41,39.409Zm-41.027,-40.548l1.093,1.093c-0.047,0.029 -0.093,0.068 -0.135,0.117l-4.597,5.438c0.168,0.224 0.28,0.449 0.336,0.673c0.224,0.841 -0.224,1.738 -1.009,2.074c-1.065,0.448 -2.242,-0.112 -2.523,-1.177c-0.28,-0.953 0.281,-1.962 1.234,-2.243c0.336,-0.112 0.672,-0.112 1.009,0l4.597,-5.493c0.145,-0.174 0.11,-0.363 -0.005,-0.482Zm-16.665,0.398l5.267,5.267c-0.198,0.104 -0.396,0.207 -0.594,0.31c0,0.056 -0.056,0.056 -0.112,0.112l-35.419,39.165l-33.976,-33.976c0.318,0.295 0.748,0.473 1.228,0.473l37.84,0c1.009,0 1.793,-0.784 1.793,-1.794l0,-0.896c0,-1.01 -0.784,-1.794 -1.793,-1.794l-11.179,-0l-3.355,-3.355c0.314,0.275 0.73,0.44 1.192,0.44l37.839,-0c1.009,-0 1.794,-0.785 1.794,-1.794l-0,-0.897c-0,-0.497 -0.204,-0.94 -0.525,-1.261Zm-64.313,58.595l11.456,11.455l-1.779,0.106c-0.225,0.056 -0.505,-0.056 -0.673,-0.224l-3.252,-2.915c-1.681,-1.457 -4.26,-3.139 -5.549,-8.016c-0.04,-0.161 -0.111,-0.297 -0.203,-0.406Zm-2.488,7.805l10.931,9.699c-0.192,0.216 -0.386,0.434 -0.58,0.652l-10.351,-10.351Zm-5.998,27.189l1.009,0.841l-0.023,0.145l-0.986,-0.986Z" style="fill:#9e8315;"/>
        <g id="Icon1" serif:id="Icon">
            <path d="M81.328,124.31c-2.354,1.457 -5.83,3.195 -7.4,1.794l-10.202,-9.082c-0.393,-0.336 -1.009,-0.336 -1.346,0.056c-4.26,4.821 -8.857,9.979 -13.061,14.688l0.673,0.56c0.224,0.224 0.28,0.561 0.056,0.785l-1.57,1.85c-0.224,0.224 -0.561,0.28 -0.785,0.056l-0.897,-0.729l-5.998,1.682c-0.673,0.168 -1.345,-0.393 -1.233,-1.065l0.953,-5.942l-1.009,-0.841c-0.225,-0.225 -0.281,-0.561 -0.056,-0.785l1.569,-1.85c0.225,-0.224 0.561,-0.28 0.785,-0.056l0.841,0.729c4.429,-4.989 9.306,-10.483 13.79,-15.528l-10.931,-9.699c-1.57,-1.401 -0.28,-5.045 0.897,-7.567c0.392,-0.841 1.569,-0.729 1.794,0.168c1.289,4.877 3.868,6.559 5.549,8.016l3.252,2.915c0.168,0.168 0.448,0.28 0.673,0.224l9.417,-0.56c0.561,-0.056 1.009,0.392 1.009,0.897l0.561,9.418c-0,0.28 0.112,0.504 0.336,0.672l3.252,2.915c1.681,1.514 3.643,3.868 8.633,4.597c0.953,0 1.233,1.177 0.448,1.682Z" style="fill:#fff;"/>
            <path d="M130.659,35.682l-4.26,12.837c-0,0.056 -0.056,0.112 -0.112,0.168l-55.666,61.608c-0.28,0.337 -0.841,0.112 -0.841,-0.336l-0.336,-6.391c-0,-0.112 0.056,-0.28 0.112,-0.336l3.868,-4.261c0.168,-0.224 0.168,-0.504 -0.056,-0.672l-0.505,-0.505c-0.224,-0.168 -0.504,-0.168 -0.672,0.056l-3.868,4.261c-0.112,0.112 -0.225,0.168 -0.337,0.168l-6.39,0.336c-0.449,0 -0.673,-0.504 -0.393,-0.841l55.666,-61.552c0.056,-0.056 0.112,-0.056 0.112,-0.112c3.868,-2.018 7.68,-4.036 11.548,-6.054c0.336,-0.168 0.729,0.224 0.449,0.561l-4.597,5.493c-0.337,-0.112 -0.673,-0.112 -1.009,0c-0.953,0.281 -1.514,1.29 -1.234,2.243c0.281,1.065 1.458,1.625 2.523,1.177c0.785,-0.336 1.233,-1.233 1.009,-2.074c-0.056,-0.224 -0.168,-0.449 -0.336,-0.673l4.597,-5.438c0.336,-0.392 0.897,-0.112 0.728,0.337Z" style="fill:#fff;fill-rule:nonzero;"/>
            <path d="M86.542,41.4l-37.84,-0c-1.009,-0 -1.794,0.784 -1.794,1.794l0,0.896c0,1.01 0.785,1.794 1.794,1.794l37.84,0c1.009,0 1.793,-0.784 1.793,-1.794l0,-0.896c0,-1.01 -0.784,-1.794 -1.793,-1.794Z" style="fill:#fff;fill-rule:nonzero;"/>
            <path d="M111.039,34l-37.839,-0c-1.009,-0 -1.794,0.785 -1.794,1.794l-0,0.897c-0,1.009 0.785,1.794 1.794,1.794l37.839,-0c1.009,-0 1.794,-0.785 1.794,-1.794l-0,-0.897c-0,-1.009 -0.841,-1.794 -1.794,-1.794Z" style="fill:#fff;fill-rule:nonzero;"/>
        </g>
    </g>
    <defs>
        <linearGradient id="_Linear1" x1="0" y1="0" x2="1" y2="0" gradientUnits="userSpaceOnUse" gradientTransform="matrix(1.04095e-14,170,-170,1.04095e-14,90.9806,0)"><stop offset="0" style="stop-color:#f6efe0;stop-opacity:1"/><stop offset="1" style="stop-color:#cd9d15;stop-opacity:1"/></linearGradient>
    </defs>
</svg>
