<?xml version="1.0" encoding="UTF-8" standalone="no"?>
<!DOCTYPE svg PUBLIC "-//W3C//DTD SVG 1.1//EN" "http://www.w3.org/Graphics/SVG/1.1/DTD/svg11.dtd">
<svg width="100%" height="100%" viewBox="0 0 500 500" version="1.1" xmlns="http://www.w3.org/2000/svg" xmlns:xlink="http://www.w3.org/1999/xlink" xml:space="preserve" xmlns:serif="http://www.serif.com/" style="fill-rule:evenodd;clip-rule:evenodd;stroke-linejoin:round;stroke-miterlimit:2;">
    <rect id="Icon" x="0" y="0" width="500" height="500" style="fill:none;"/>
    <clipPath id="_clip1">
        <rect x="0" y="0" width="500" height="500"/>
    </clipPath>
    <g clip-path="url(#_clip1)">
        <path d="M232.001,442.695c-11.542,7.145 -28.579,15.663 -36.273,8.793l-50.013,-44.516c-1.924,-1.649 -4.946,-1.649 -6.595,0.274c-20.885,23.633 -43.418,48.914 -64.027,71.997l3.297,2.748c1.099,1.099 1.374,2.748 0.275,3.847l-7.694,9.068c-1.1,1.099 -2.748,1.374 -3.847,0.275l-4.397,-3.573l-29.403,8.244c-3.298,0.825 -6.595,-1.923 -6.046,-5.221l4.672,-29.128l-4.947,-4.122c-1.099,-1.099 -1.374,-2.748 -0.274,-3.847l7.694,-9.068c1.099,-1.1 2.748,-1.374 3.847,-0.275l4.122,3.572c21.709,-24.457 45.616,-51.387 67.6,-76.118l-53.585,-47.54c-7.695,-6.87 -1.374,-24.731 4.396,-37.097c1.924,-4.122 7.694,-3.572 8.794,0.824c6.32,23.908 18.961,32.151 27.204,39.296l15.939,14.289c0.824,0.825 2.198,1.374 3.297,1.1l46.166,-2.748c2.748,-0.275 4.946,1.923 4.946,4.396l2.748,46.166c-0,1.374 0.549,2.473 1.649,3.298l15.938,14.289c8.244,7.419 17.861,18.961 42.318,22.533c4.672,0 6.046,5.771 2.199,8.244Z" style="fill:#f3d022;"/>
        <path d="M473.82,8.244l-20.884,62.928c-0,0.275 -0.275,0.55 -0.55,0.824l-272.871,302c-1.374,1.649 -4.122,0.55 -4.122,-1.649l-1.649,-31.326c0,-0.55 0.275,-1.374 0.55,-1.649l18.96,-20.884c0.825,-1.1 0.825,-2.474 -0.274,-3.298l-2.473,-2.473c-1.1,-0.825 -2.474,-0.825 -3.298,0.275l-18.961,20.884c-0.549,0.55 -1.099,0.824 -1.649,0.824l-31.326,1.649c-2.199,0 -3.298,-2.473 -1.924,-4.122l272.872,-301.725c0.274,-0.275 0.549,-0.275 0.549,-0.549c18.961,-9.893 37.647,-19.786 56.608,-29.678c1.649,-0.825 3.572,1.099 2.198,2.748l-22.533,26.93c-1.649,-0.55 -3.297,-0.55 -4.946,-0c-4.672,1.374 -7.42,6.32 -6.046,10.991c1.374,5.222 7.145,7.97 12.366,5.771c3.847,-1.649 6.046,-6.045 4.947,-10.167c-0.275,-1.099 -0.825,-2.199 -1.649,-3.298l22.533,-26.655c1.649,-1.923 4.397,-0.55 3.572,1.649Z" style="fill:#f3d022;fill-rule:nonzero;"/>
        <path d="M257.557,36.273l-185.487,-0c-4.946,-0 -8.794,3.847 -8.794,8.793l0,4.397c0,4.946 3.848,8.794 8.794,8.794l185.487,-0c4.946,-0 8.793,-3.848 8.793,-8.794l-0,-4.397c-0,-4.946 -3.847,-8.793 -8.793,-8.793Z" style="fill:#f3d022;fill-rule:nonzero;"/>
        <path d="M377.642,0l-185.487,0c-4.946,0 -8.793,3.847 -8.793,8.793l-0,4.397c-0,4.946 3.847,8.794 8.793,8.794l185.487,-0c4.946,-0 8.793,-3.848 8.793,-8.794l0,-4.397c0,-4.946 -4.121,-8.793 -8.793,-8.793Z" style="fill:#f3d022;fill-rule:nonzero;"/>
    </g>
</svg>
